<svg viewBox="0 0 44 44" fill="none" xmlns="http://www.w3.org/2000/svg" style="transform: scale(1.4);overflow: hidden;">
<mask id="mask0" mask-type="alpha" maskUnits="userSpaceOnUse" x="11" y="7" width="17" height="31">
<path d="M11.625 7.15063H27.8534V37.0756H11.625V7.15063Z" fill="white"/>
</mask>
<g mask="url(#mask0)">
<path fill-rule="evenodd" clip-rule="evenodd" d="M26.0232 37.0756H13.4555C12.4463 37.0756 11.625 36.2556 11.625 35.2473V8.979C11.625 7.9709 12.4463 7.15063 13.4555 7.15063H26.0232C27.0324 7.15063 27.8534 7.9709 27.8534 8.979V14.0347H26.2503V8.979C26.2503 8.85476 26.1485 8.75376 26.0232 8.75376H13.4555C13.3302 8.75376 13.2281 8.85476 13.2281 8.979V35.2473C13.2281 35.3715 13.3302 35.4725 13.4555 35.4725H26.0232C26.1507 35.4725 26.2503 35.3736 26.2503 35.2473V28.8674H27.8534V35.2473C27.8534 36.2556 27.0324 37.0756 26.0232 37.0756Z" fill="#BDC1C6"/>
</g>
<mask id="mask1" mask-type="alpha" maskUnits="userSpaceOnUse" x="11" y="7" width="22" height="31">
<path d="M11.625 37.0756H33V7.15063H11.625V37.0756Z" fill="white"/>
</mask>
<g mask="url(#mask1)">
<path fill-rule="evenodd" clip-rule="evenodd" d="M26.25 28.8677H27.8531V27.6133H26.25V28.8677Z" fill="#BDC1C6"/>
<path fill-rule="evenodd" clip-rule="evenodd" d="M18.8912 21.1386L18.0322 19.7851C18.5156 19.4783 19.0572 19.2617 19.6185 19.1484C20.1021 18.3708 20.7666 17.7205 21.5594 17.2529C22.4259 16.7418 23.4179 16.4717 24.4287 16.4717V18.0748C23.7044 18.0748 22.9936 18.268 22.3738 18.6338C21.7186 19.0201 21.1856 19.5801 20.8321 20.2535L20.6333 20.6321L20.2082 20.6777C19.7358 20.7288 19.2928 20.8837 18.8912 21.1386Z" fill="#4285F4"/>
<path fill-rule="evenodd" clip-rule="evenodd" d="M29.6304 22.0597C29.4784 22.0164 29.3205 21.9881 29.161 21.975H28.5333L28.4046 21.3292C28.031 19.4434 26.3584 18.0746 24.4277 18.0746V16.4714C26.927 16.4714 29.1166 18.1176 29.8364 20.4589C29.9142 20.4763 29.9914 20.4955 30.0678 20.5175L29.9556 20.9134C29.9628 20.9482 29.97 20.9829 29.977 21.0176L29.923 21.0283L29.6304 22.0597Z" fill="#34A853"/>
<path fill-rule="evenodd" clip-rule="evenodd" d="M31.7419 27.306L30.6387 26.1427C31.1276 25.6791 31.397 25.0536 31.397 24.3819C31.397 23.3092 30.6705 22.3542 29.6309 22.0595L30.0674 20.5173C31.794 21.0063 33.0001 22.5955 33.0001 24.3819C33.0001 25.498 32.5531 26.5365 31.7419 27.306Z" fill="#FBBC04"/>
<path fill-rule="evenodd" clip-rule="evenodd" d="M27.9522 28.4142H26.251V26.8111H27.9522C29.1932 26.8111 30.1976 26.561 30.6393 26.1423L31.7425 27.3057C30.9775 28.0308 29.667 28.4142 27.9522 28.4142Z" fill="#EA4335"/>
<path fill-rule="evenodd" clip-rule="evenodd" d="M20.6152 28.4148H20.5901C19.3204 28.4148 18.1229 27.9146 17.2198 27.0064C16.334 26.1159 15.8499 24.9454 15.8565 23.7101C15.8651 22.1116 16.6784 20.6442 18.0323 19.7852L18.8913 21.1385C18.0005 21.7038 17.4653 22.6684 17.4597 23.7187C17.4552 24.524 17.7737 25.2906 18.3564 25.8762C18.9605 26.4833 19.7581 26.8223 20.608 26.8117C21.4194 26.8117 22.183 26.4926 22.7674 25.9115C23.3683 25.3138 23.6993 24.5237 23.6993 23.6877V21.9475H25.3025V23.6877C25.3025 24.9536 24.8036 26.1472 23.8976 27.0481C23.0111 27.9301 21.8461 28.4148 20.6152 28.4148Z" fill="#BDC1C6"/>
<path fill-rule="evenodd" clip-rule="evenodd" d="M26.2146 24.6762L24.5001 23.0573L22.7861 24.6757L21.6855 23.51L24.5001 20.8528L27.3152 23.5105L26.2146 24.6762Z" fill="#BDC1C6"/>
</g>
</svg>
