<svg width="64" height="66" viewBox="0 0 64 66" fill="none" xmlns="http://www.w3.org/2000/svg">
<g clip-path="url(#clip0)">
<mask id="mask0" mask-type="alpha" maskUnits="userSpaceOnUse" x="31" y="12" width="20" height="17">
<path d="M31.9757 12.6797H50.4246V28.4617H31.9757V12.6797Z" fill="white"/>
</mask>
<g mask="url(#mask0)">
<path fill-rule="evenodd" clip-rule="evenodd" d="M47.507 28.462C46.103 21.1023 39.5708 15.7605 31.9757 15.7605V12.6797C40.987 12.6797 48.7458 19.0658 50.4246 27.8646L47.507 28.462Z" fill="#EA4335"/>
</g>
<path fill-rule="evenodd" clip-rule="evenodd" d="M18.3313 53.4537V50.3728L47.8942 50.3725C53.344 50.3725 57.7776 45.7795 57.7776 40.1338H60.7515C60.7515 47.4782 54.9837 53.4533 47.8942 53.4533L18.3313 53.4537Z" fill="#BDC1C6"/>
<path fill-rule="evenodd" clip-rule="evenodd" d="M56.9441 49.5922L54.8508 47.4042C56.7382 45.4659 57.7775 42.8838 57.7775 40.1338H60.7514C60.7514 43.7121 59.3993 47.0708 56.9441 49.5922Z" fill="#34A853"/>
<path fill-rule="evenodd" clip-rule="evenodd" d="M60.7515 40.134H57.7776C57.7776 37.3019 56.5195 34.4406 54.4127 32.4803C52.4627 30.6665 49.9885 29.8236 47.4469 30.107L47.1282 27.044C50.5209 26.6653 53.8135 27.7822 56.3999 30.1881C59.1246 32.7235 60.7515 36.4416 60.7515 40.134Z" fill="#FBBC04"/>
<mask id="mask1" mask-type="alpha" maskUnits="userSpaceOnUse" x="3" y="22" width="16" height="32">
<path d="M3.20007 22.0635H18.3313V53.4529H3.20007V22.0635Z" fill="white"/>
</mask>
<g mask="url(#mask1)">
<path fill-rule="evenodd" clip-rule="evenodd" d="M18.3313 53.4529C14.2884 53.4529 10.488 51.823 7.63089 48.8628C4.77343 45.9029 3.20007 41.9663 3.20007 37.7776C3.20007 31.0345 6.42912 25.6359 11.8376 23.3367C13.5828 22.5947 15.5512 22.1663 17.688 22.0635L17.8264 25.1407C16.0308 25.2273 14.3958 25.5792 12.9664 26.1866C8.64985 28.0218 6.17399 32.2467 6.17399 37.7776C6.17399 41.1432 7.43806 44.3064 9.7336 46.6845C12.0292 49.0626 15.0826 50.3721 18.3313 50.3721V53.4529Z" fill="#BDC1C6"/>
</g>
<path fill-rule="evenodd" clip-rule="evenodd" d="M15.6702 22.5215C18.9819 16.5194 25.2897 12.6797 31.9757 12.6797V15.7605C26.1684 15.7605 20.8786 19.0865 18.1701 24.4407L17.8139 25.1454" fill="#4285F4"/>
<path fill-rule="evenodd" clip-rule="evenodd" d="M12.9664 26.1869L11.8379 23.3367C13.5828 22.5947 15.5512 22.1666 17.688 22.0635L17.8261 25.1411C16.0308 25.2276 14.3955 25.5795 12.9664 26.1869Z" fill="#4285F4"/>
</g>
<defs>
<clipPath id="clip0">
<rect x="3.20007" y="12.3555" width="57.6" height="41.1858" fill="white"/>
</clipPath>
</defs>
</svg>
