<svg width="425" height="425" viewBox="0 0 425 425" fill="none" xmlns="http://www.w3.org/2000/svg">
<path d="M349.57 153.676H74.81V369.016H349.57V153.676Z" fill="#E1E2E6"/>
<path style="mix-blend-mode:multiply" opacity="0.3" d="M379.62 398.795L237.28 256.465C230.655 249.844 221.672 246.125 212.305 246.125C202.938 246.125 193.955 249.844 187.33 256.465L45 398.795H379.62Z" fill="url(#paint0_linear)"/>
<path style="mix-blend-mode:multiply" opacity="0.3" d="M75 153.505L188 266.006C191.279 269.287 195.173 271.889 199.458 273.665C203.743 275.441 208.336 276.355 212.975 276.355C217.614 276.355 222.207 275.441 226.492 273.665C230.777 271.889 234.671 269.287 237.95 266.006L349 153.505H75Z" fill="#909295"/>
<path d="M313.88 89.3047H112L112.09 192.295L149.34 230.115L191.65 271.785L212.16 318.305L233.32 271.785L273.7 231.405L313.81 189.735L313.88 89.3047Z" fill="#D5E3FA"/>
<path d="M313.88 89.3047H112L112.09 192.295L149.34 230.115L191.65 271.785L212.16 318.305L233.32 271.785L273.7 231.405L313.81 189.735L313.88 89.3047Z" fill="url(#paint1_linear)"/>
<path fill-rule="evenodd" clip-rule="evenodd" d="M216.71 27C218.502 27 219.955 28.4528 219.955 30.245V51.815C219.955 53.6072 218.502 55.06 216.71 55.06C214.918 55.06 213.465 53.6072 213.465 51.815V30.245C213.465 28.4528 214.918 27 216.71 27Z" fill="#E1E2E6"/>
<path fill-rule="evenodd" clip-rule="evenodd" d="M271.575 44.5803C272.842 45.8476 272.842 47.9022 271.575 49.1694L258.095 62.6494C256.827 63.9167 254.773 63.9167 253.505 62.6494C252.238 61.3822 252.238 59.3276 253.505 58.0603L266.985 44.5803C268.253 43.3131 270.307 43.3131 271.575 44.5803Z" fill="#E1E2E6"/>
<path fill-rule="evenodd" clip-rule="evenodd" d="M160.045 44.5803C161.313 43.3131 163.367 43.3131 164.635 44.5803L178.115 58.0603C179.382 59.3276 179.382 61.3822 178.115 62.6494C176.847 63.9167 174.793 63.9167 173.525 62.6494L160.045 49.1694C158.778 47.9022 158.778 45.8476 160.045 44.5803Z" fill="#E1E2E6"/>
<rect x="128" y="121.005" width="170" height="8" fill="#5086EC"/>
<rect x="128" y="145.005" width="170" height="8" fill="#5086EC"/>
<rect x="128" y="169.005" width="170" height="8" fill="#5086EC"/>
<rect x="148" y="193.005" width="130" height="8" fill="#5086EC"/>
<defs>
<linearGradient id="paint0_linear" x1="212.31" y1="371.215" x2="212.31" y2="238.245" gradientUnits="userSpaceOnUse">
<stop stop-color="white"/>
<stop offset="0.13" stop-color="#F8F8F9"/>
<stop offset="0.31" stop-color="#E5E6E7"/>
<stop offset="0.52" stop-color="#C6C8CA"/>
<stop offset="0.75" stop-color="#9B9EA1"/>
<stop offset="0.99" stop-color="#686C71"/>
</linearGradient>
<linearGradient id="paint1_linear" x1="212.94" y1="89.3047" x2="212.94" y2="318.305" gradientUnits="userSpaceOnUse">
<stop stop-color="#D5E3FA" stop-opacity="0"/>
<stop offset="0.817708" stop-color="#B7CDF0"/>
</linearGradient>
</defs>
</svg>
