<svg width="87" height="88" viewBox="0 0 87 88" fill="none" xmlns="http://www.w3.org/2000/svg">
<mask id="mask0" mask-type="alpha" maskUnits="userSpaceOnUse" x="22" y="14" width="33" height="61">
<path d="M22.2499 14.3018H54.7066V74.1518H22.2499V14.3018Z" fill="white"/>
</mask>
<g mask="url(#mask0)">
<path fill-rule="evenodd" clip-rule="evenodd" d="M51.0459 74.1518H25.9105C23.8922 74.1518 22.2495 72.5118 22.2495 70.495V17.9585C22.2495 15.9423 23.8922 14.3018 25.9105 14.3018H51.0459C53.0643 14.3018 54.7064 15.9423 54.7064 17.9585V28.0699H51.5001V17.9585C51.5001 17.71 51.2965 17.508 51.0459 17.508H25.9105C25.6599 17.508 25.4558 17.71 25.4558 17.9585V70.495C25.4558 70.7435 25.6599 70.9455 25.9105 70.9455H51.0459C51.3008 70.9455 51.5001 70.7478 51.5001 70.495V57.7352H54.7064V70.495C54.7064 72.5118 53.0643 74.1518 51.0459 74.1518Z" fill="#BDC1C6"/>
</g>
<mask id="mask1" mask-type="alpha" maskUnits="userSpaceOnUse" x="22" y="14" width="43" height="61">
<path d="M22.2499 74.1518H64.9999V14.3018H22.2499V74.1518Z" fill="white"/>
</mask>
<g mask="url(#mask1)">
<path fill-rule="evenodd" clip-rule="evenodd" d="M51.5 57.7355H54.7063V55.2266H51.5V57.7355Z" fill="#BDC1C6"/>
<path fill-rule="evenodd" clip-rule="evenodd" d="M36.7822 42.2773L35.0642 39.5701C36.0309 38.9567 37.1141 38.5233 38.2368 38.2967C39.204 36.7417 40.533 35.441 42.1185 34.5059C43.8515 33.4836 45.8356 32.9434 47.8572 32.9434V36.1496C46.4085 36.1496 44.987 36.536 43.7473 37.2675C42.437 38.0402 41.3709 39.1603 40.6639 40.5069L40.2664 41.2641L39.4162 41.3555C38.4714 41.4576 37.5854 41.7675 36.7822 42.2773Z" fill="#4285F4"/>
<path fill-rule="evenodd" clip-rule="evenodd" d="M58.2608 44.1198C57.9568 44.0332 57.641 43.9766 57.3219 43.9504H56.0667L55.8091 42.6588C55.0621 38.8872 51.7169 36.1496 47.8555 36.1496V32.9434C52.854 32.9434 57.2332 36.2356 58.6728 40.9184C58.8283 40.9531 58.9828 40.9916 59.1356 41.0354L58.9112 41.8273C58.9256 41.8968 58.94 41.9663 58.9539 42.0357L58.846 42.0571L58.2608 44.1198Z" fill="#34A853"/>
<path fill-rule="evenodd" clip-rule="evenodd" d="M62.4837 54.6126L60.2773 52.2859C61.2552 51.3588 61.7938 50.1078 61.7938 48.7644C61.7938 46.6188 60.3408 44.709 58.2616 44.1196L59.1348 41.0352C62.5879 42.0131 65.0001 45.1915 65.0001 48.7644C65.0001 50.9964 64.1061 53.0736 62.4837 54.6126Z" fill="#FBBC04"/>
<path fill-rule="evenodd" clip-rule="evenodd" d="M54.904 56.8289H51.5016V53.6227H54.904C57.3861 53.6227 59.3948 53.1225 60.2782 52.2852L62.4846 54.6118C60.9547 56.0621 58.3336 56.8289 54.904 56.8289Z" fill="#EA4335"/>
<path fill-rule="evenodd" clip-rule="evenodd" d="M40.2301 56.8305H40.1799C37.6406 56.8305 35.2455 55.8302 33.4393 54.0138C31.6678 52.2328 30.6996 49.8917 30.7128 47.4213C30.73 44.2241 32.3567 41.2893 35.0643 39.5713L36.7823 42.2779C35.0007 43.4086 33.9304 45.3377 33.9192 47.4384C33.9101 49.049 34.5471 50.5821 35.7125 51.7534C36.9208 52.9675 38.5159 53.6457 40.2157 53.6243C41.8386 53.6243 43.3658 52.9862 44.5345 51.824C45.7363 50.6286 46.3984 49.0484 46.3984 47.3764V43.896H49.6047V47.3764C49.6047 49.9082 48.607 52.2953 46.7949 54.0972C45.0219 55.8612 42.692 56.8305 40.2301 56.8305Z" fill="#BDC1C6"/>
<path fill-rule="evenodd" clip-rule="evenodd" d="M51.4293 49.353L48.0002 46.1152L44.5722 49.3519L42.3711 47.0204L48.0002 41.7061L53.6304 47.0215L51.4293 49.353Z" fill="#BDC1C6"/>
</g>
</svg>
